/* XPM */
static char * C:\Users\earlz\Creative Cloud Files\recrypt logos\bitcoin32_xpm[] = {
"32 32 2 1",
" 	c None",
".	c #29A7E1",
"                                ",
"                                ",
"          ..      ..            ",
"          ..      ..            ",
"        .  .       ...          ",
"       . .  .    .  . .         ",
"     ..  .   .  .   .  .        ",
"   ..   .      .         ..     ",
"   ...  .     ..     .  ...     ",
"   .  ......  ..  ......  .     ",
"   .   ..            ..         ",
"  .   . .    .  .    .     .    ",
"  .   .     .       .  .   .    ",
"    ..   .  .    .  .   ..      ",
" .  ..     .      ..    ..  .   ",
".. ..     ..      ..     .. ..  ",
".. ..     ..      ..    ... ..  ",
" .  ..     .      ..    ..  .   ",
"    ..   .       .  .   ..      ",
"  .   .     .       .  .   .    ",
"  .   . .    .  .    . .   .    ",
"   .   ..            ..         ",
"   .  .....   ..   ....   .     ",
"   ...  .     ..     .  ...     ",
"   ..   .      .         ..     ",
"     .       .  .   .  .   .    ",
"       . .  .    .  . .      ...",
"        .  .       . .       ...",
"          ..      ..         ...",
"          ..      ..            ",
"                                ",
"                                "};
